# xmcd CD database file generated by Grip 3.3.1
# 
# Track frame offsets:
#       150
#       86903
#       109560
#       135303
#       176556
#       195465
#       214115
#       225613
#       236453
#       248924
#       268449
#       299310
#       329559
# 
# Disc length: 4713 seconds
# 
# Revision: 1
# Processed by: cddbd v1.5.2PL0 Copyright (c) Steve Scherf et al.
# Submitted via: Grip 3.3.1
# 
DISCID=be12670d
DTITLE=Royal Concertgebouw Orchestra Amsterdam - Radio Legacy RCO 1960-1
DTITLE=970 CD51
DYEAR=1900
DGENRE=Classical
TTITLE0=Symphony No.1 (1957-1959) - Hans Rosbaud (dir.), Otto Ketting
TTITLE1=I. Präludium - Drie Orchesterstücke, Op.6 - Hans Rosbaud (dir.)
TTITLE1=, Alban Berg
TTITLE2=II. Reigen - Drie Orchesterstücke, Op.6 - Hans Rosbaud (dir.), A
TTITLE2=lban Berg
TTITLE3=III. Marsch - Drie Orchesterstücke, Op.6 - Hans Rosbaud (dir.), 
TTITLE3=Alban Berg
TTITLE4=I. Ist alls zu End das Freudenmahl - Sechs Monologe aus 'Jederman
TTITLE4=n' (1943, orch. 1949) - André Vessières (baritone), Euchen Joch
TTITLE4=um (dir.), Frank Martin
TTITLE5=II. Ach Gott, wie graust mir vor dem Tod - Sechs Monologe aus 'Je
TTITLE5=dermann' (1943, orch. 1949) - André Vessières (baritone), Euche
TTITLE5=n Jochum (dir.), Frank Martin
TTITLE6=III. Ist als wenn eins gerufen hätt' - Sechs Monologe aus 'Jeder
TTITLE6=mann' (1943, orch. 1949) - André Vessières (baritone), Euchen J
TTITLE6=ochum (dir.), Frank Martin
TTITLE7=IV. So wollt' ich ganz vernichtet sein - Sechs Monologe aus 'Jede
TTITLE7=rmann' (1943, orch. 1949) - André Vessières (baritone), Euchen 
TTITLE7=Jochum (dir.), Frank Martin
TTITLE8=V. Ja! Ich glaub': solches hat er vollbracht - Sechs Monologe aus
TTITLE8='Jedermann' (1943, orch. 1949) - André Vessières (baritone), E
TTITLE8=uchen Jochum (dir.), Frank Martin
TTITLE9=VI. O ewiger Gott! O göttliches gescicht - Sechs Monologe aus 'J
TTITLE9=edermann' (1943, orch. 1949) - André Vessières (baritone), Euch
TTITLE9=en Jochum (dir.), Frank Martin
TTITLE10=I. Allegro - Music for strings, trumpets and percussion (1958) - 
TTITLE10=Witold Rowicki (dir.), Grazyna Bacewicz
TTITLE11=II. Adagio - Music for strings, trumpets and percussion (1958) - 
TTITLE11=Witold Rowicki (dir.), Grazyna Bacewicz
TTITLE12=III. Vivace - Music for strings, trumpets and percussion (1958) /
TTITLE12=Witold Rowicki (dir.), Grazyna Bacewicz
EXTD=
EXTT0=
EXTT1=
EXTT2=
EXTT3=
EXTT4=
EXTT5=
EXTT6=
EXTT7=
EXTT8=
EXTT9=
EXTT10=
EXTT11=
EXTT12=
PLAYORDER=
